Coordinates
version=1
nRows=13
nColumns=40
inDegrees=yes

Units are S.I. units (second, meters, Newtons, ...)
If the header above contains a line with 'inDegrees', this indicates whether rotational values are in degrees (yes) or radians (no).

endheader
time	pelvis_tilt	pelvis_list	pelvis_rotation	pelvis_tx	pelvis_ty	pelvis_tz	hip_flexion_r	hip_adduction_r	hip_rotation_r	knee_angle_r	knee_angle_r_beta	ankle_angle_r	subtalar_angle_r	mtp_angle_r	hip_flexion_l	hip_adduction_l	hip_rotation_l	knee_angle_l	knee_angle_l_beta	ankle_angle_l	subtalar_angle_l	mtp_angle_l	lumbar_extension	lumbar_bending	lumbar_rotation	arm_flex_r	arm_add_r	arm_rot_r	elbow_flex_r	pro_sup_r	wrist_flex_r	wrist_dev_r	arm_flex_l	arm_add_l	arm_rot_l	elbow_flex_l	pro_sup_l	wrist_flex_l	wrist_dev_l
      4.55500000	    -10.03421459	      1.33384779	     -0.69050309	     -0.15140910	      1.31169642	     -0.87995672	      3.75581698	     -1.41514140	    -24.54016459	      2.00178168	      0.03493768	    -36.14664564	      0.00000000	      0.00000000	      3.86162611	     -2.29810974	    -21.46984741	      3.66714760	      0.06400380	    -39.42227206	      0.00000000	      0.00000000	     -0.71776177	     -1.15897989	     -3.43918701	    -42.02177006	    -39.18682427	     -3.87623073	    121.97937306	     87.33826560	      0.00000000	      0.00000000	    -50.11659857	    -34.12159584	     -4.53690443	    118.20907482	     88.07902246	      0.00000000	      0.00000000
      4.56000000	    -10.39782184	      1.36307265	     -0.58829117	     -0.15076915	      1.31859287	     -0.88031825	      4.08967525	     -1.64147700	    -24.22969585	      2.12013775	      0.03700338	    -36.39170416	      0.00000000	      0.00000000	      4.27157720	     -2.38293183	    -20.63585368	      4.23483872	      0.07391188	    -39.43160578	      0.00000000	      0.00000000	      0.03726468	     -1.13580231	     -3.39558040	    -42.00788686	    -38.99172195	     -3.81773043	    121.55367324	     87.29089575	      0.00000000	      0.00000000	    -49.44520945	    -34.21427524	     -3.91855967	    117.62284846	     88.08203713	      0.00000000	      0.00000000
      4.56500000	    -10.54466305	      1.29593546	     -0.47618340	     -0.14977090	      1.32535674	     -0.88054758	      4.15227863	     -1.77495569	    -24.05428637	      2.20730268	      0.03852470	    -36.52271825	      0.00000000	      0.00000000	      4.24284253	     -2.54531932	    -19.80677763	      4.44016755	      0.07749554	    -39.44303868	      0.00000000	      0.00000000	      0.52594120	     -0.89658650	     -2.14155248	    -43.83578209	    -37.38352799	     -5.71915441	    121.58246244	     87.27384163	      0.00000000	      0.00000000	    -47.27183483	    -35.65015145	     -1.77324118	    116.84447973	     88.05446355	      0.00000000	      0.00000000
      4.57000000	    -10.56380470	      1.29116792	     -0.47729100	     -0.14845713	      1.33170923	     -0.88033004	      4.02887729	     -1.97206414	    -24.03977589	      2.21740324	      0.03870099	    -36.53103131	      0.00000000	      0.00000000	      4.00389829	     -2.69546086	    -19.75794444	      4.48849995	      0.07833910	    -39.44220889	      0.00000000	      0.00000000	      0.89094144	     -0.90769150	     -2.15167212	    -43.86274151	    -37.35357436	     -5.68804977	    121.53484016	     87.27738574	      0.00000000	      0.00000000	    -47.23913719	    -35.57351075	     -1.74326927	    116.80197079	     88.05581113	      0.00000000	      0.00000000
      4.57500000	    -10.50741461	      1.36200251	     -0.44116988	     -0.14710856	      1.33800386	     -0.88049358	      3.73331370	     -2.28725323	    -23.87682573	      2.05819211	      0.03592223	    -36.46413380	      0.00000000	      0.00000000	      3.58827204	     -2.74037881	    -18.42126755	      4.29849701	      0.07502293	    -39.44225953	      0.00000000	      0.00000000	      1.21418262	     -0.95256966	     -2.13739426	    -43.62791819	    -37.55629923	     -5.02173794	    120.98461163	     87.32389056	      0.00000000	      0.00000000	    -46.51459412	    -35.52257186	     -0.91654699	    116.03331453	     88.04786132	      0.00000000	      0.00000000
      4.58000000	    -10.52746488	      1.33580686	     -0.47871887	     -0.14590786	      1.34356876	     -0.88021814	      3.59537292	     -2.52246204	    -23.89888049	      2.04186586	      0.03563728	    -36.43995642	      0.00000000	      0.00000000	      3.34316098	     -2.99367989	    -18.39645775	      4.31972803	      0.07539348	    -39.43427908	      0.00000000	      0.00000000	      1.52971321	     -0.96093016	     -2.09472024	    -43.65194465	    -37.54489615	     -4.96680647	    120.96734461	     87.32906961	      0.00000000	      0.00000000	    -46.50520263	    -35.46307057	     -0.87166117	    116.01905244	     88.05038542	      0.00000000	      0.00000000
      4.58500000	    -10.14407333	      1.19989337	     -0.70547429	     -0.14412939	      1.34936277	     -0.87980790	      2.86429975	     -2.58524983	    -24.16684278	      1.75472218	      0.03062568	    -36.05946065	      0.00000000	      0.00000000	      2.39295573	     -3.31614808	    -18.43970310	      3.85573060	      0.06729519	    -39.42270963	      0.00000000	      0.00000000	      1.51728436	     -0.78395052	     -1.91576012	    -43.42759351	    -38.07517354	     -4.12879582	    120.75013576	     87.38352274	      0.00000000	      0.00000000	    -46.03968173	    -35.51428755	     -0.08774564	    115.55055197	     88.05603590	      0.00000000	      0.00000000
      4.59000000	    -10.02024968	      1.11051936	     -0.93193910	     -0.14276328	      1.35436793	     -0.87955888	      2.48904644	     -2.76053845	    -24.47884884	      1.58447785	      0.02765436	    -35.82901378	      0.00000000	      0.00000000	      1.84828316	     -3.64538166	    -18.67651114	      3.62303512	      0.06323389	    -39.40728058	      0.00000000	      0.00000000	      1.70244573	     -0.67609230	     -1.67968726	    -43.42094891	    -38.41940282	     -3.78157483	    120.70185575	     87.40355388	      0.00000000	      0.00000000	    -45.88453763	    -35.42195744	      0.21291051	    115.47605816	     88.05361154	      0.00000000	      0.00000000
      4.59500000	     -9.61628702	      1.06009676	     -1.14949747	     -0.14114971	      1.35947380	     -0.87939886	      1.77319117	     -2.99406178	    -24.95495176	      1.41626674	      0.02471852	    -35.59079820	      0.00000000	      0.00000000	      0.93300536	     -3.90588215	    -19.51284332	      3.30995633	      0.05776964	    -39.40565699	      0.00000000	      0.00000000	      1.61127165	     -0.60269793	     -1.54718849	    -43.15429628	    -38.92082123	     -3.25755186	    120.68291220	     87.42098022	      0.00000000	      0.00000000	    -45.61361204	    -35.48563278	      0.71384560	    115.24482162	     88.04043830	      0.00000000	      0.00000000
      4.60000000	     -9.35079926	      0.96551015	     -1.43889567	     -0.13983843	      1.36412103	     -0.87924329	      1.27586555	     -3.21137432	    -25.42344338	      1.35041966	      0.02356927	    -35.45194546	      0.00000000	      0.00000000	      0.25796178	     -4.24718980	    -20.64649205	      3.12265985	      0.05450070	    -39.41542319	      0.00000000	      0.00000000	      1.66069718	     -0.45064176	     -1.40024299	    -42.79554988	    -39.40819466	     -2.81701779	    120.67665866	     87.40792576	      0.00000000	      0.00000000	    -45.47355442	    -35.42113704	      0.99008667	    115.06378143	     88.00848454	      0.00000000	      0.00000000
      4.60500000	     -9.25055721	      0.86454780	     -1.62958627	     -0.13872827	      1.36838494	     -0.87923875	      0.95558180	     -3.41297525	    -25.99097048	      1.29405232	      0.02258547	    -35.32943701	      0.00000000	      0.00000000	     -0.15946272	     -4.62062302	    -21.65942476	      3.04336523	      0.05311674	    -39.40288358	      0.00000000	      0.00000000	      1.84681515	     -0.30101958	     -1.32331561	    -42.53211057	    -39.78832953	     -2.52500755	    120.65217280	     87.39579157	      0.00000000	      0.00000000	    -45.37967672	    -35.24084502	      1.07287506	    114.80910793	     88.00490767	      0.00000000	      0.00000000
      4.61000000	     -9.15961086	      0.85946457	     -1.93010224	     -0.13766209	      1.37235987	     -0.87917575	      0.68739951	     -3.73313612	    -26.33478686	      1.28647525	      0.02245323	    -35.29510281	      0.00000000	      0.00000000	     -0.55459701	     -4.87484577	    -22.74393414	      2.98621733	      0.05211932	    -39.40155653	      0.00000000	      0.00000000	      2.06107544	     -0.23986954	     -1.22751882	    -42.09487082	    -40.24219010	     -2.14356832	    120.56550364	     87.39029739	      0.00000000	      0.00000000	    -45.43021715	    -34.99387901	      1.05546084	    114.63774675	     87.98574853	      0.00000000	      0.00000000
      4.61500000	     -9.19605167	      0.80126723	     -2.01080864	     -0.13667248	      1.37614666	     -0.87932309	      0.50952663	     -3.95464648	    -26.72007738	      1.24401949	      0.02171224	    -35.23930618	      0.00000000	      0.00000000	     -0.77891521	     -5.18834487	    -23.27505919	      2.89705207	      0.05056310	    -39.39043304	      0.00000000	      0.00000000	      2.38697635	     -0.11868916	     -1.19839850	    -41.87509597	    -40.32806522	     -2.10761256	    120.53237312	     87.38300203	      0.00000000	      0.00000000	    -45.34015935	    -34.81436896	      1.06019511	    114.33562587	     87.98104640	      0.00000000	      0.00000000
